<?xml version="1.0" encoding="UTF-8"?>
<svg width="382px" height="89px" viewBox="0 0 382 89" version="1.1" xmlns="http://www.w3.org/2000/svg" xmlns:xlink="http://www.w3.org/1999/xlink">
    <!-- Generator: Sketch 53.1 (72631) - https://sketchapp.com -->
    <title>SHIKI4PY</title>
    <desc>Created with Sketch.</desc>
    <g id="Page-1" stroke="none" stroke-width="1" fill="none" fill-rule="evenodd">
        <g id="SHIKI4PY" fill-rule="nonzero">
            <path d="M42.2319984,20.6849465 C44.0904922,21.7156228 45.673334,23.2939002 46.7117953,25.3319951 C47.841506,27.5491773 48.1522864,29.9677125 47.7560631,32.2412714 L46.7652236,40.7959345 C46.457002,43.4570439 44.0532304,45.3584747 41.3962496,45.0428989 C40.761087,44.9674592 40.1468019,44.7667956 39.5888371,44.4524861 L32.0855684,40.2257872 C30.0133264,39.2099743 28.2393625,37.5369683 27.1096517,35.3197861 C25.3967818,31.9580896 25.5665255,28.1335088 27.2287572,25.0531923 C27.243848,24.268795 27.4842614,23.4844018 27.95,22.7 C28.5833365,21.633328 28.9,21.033334 28.9,20.9 C28.9,20.766666 28.833334,20.633334 28.7,20.5 C28.766667,20.166665 28.8,19.833335 28.8,19.5 C28.8,17.49999 27.633345,16.566666 25.3,16.7 C23.033322,16.833334 21.266673,18.333319 20,21.2 C18.866661,23.666679 18.366666,26.499984 18.5,29.7 C18.700001,35.366695 22.433297,39.899983 29.7,43.3 C35.433362,45.96668 39.399989,48.599987 41.6,51.2 C44.733349,54.933352 46.3,60.166633 46.3,66.9 C46.3,72.100026 44.6500165,76.6499805 41.35,80.55 C38.0499835,84.4500195 33.966691,86.4 29.1,86.4 C19.299951,86.4 12.100023,81.73338 7.5,72.4 C2.499975,69.133317 0,66.366678 0,64.1 C0,62.966661 0.699993,62.033337 2.1,61.3 C4.833347,59.833326 7.333322,59.1 9.6,59.1 C14.533358,59.1 17.833325,62.033304 19.5,67.9 C20.300004,69.500008 21.133329,71.099992 22,72.7 C22.866671,74.300008 24.033326,75.1 25.5,75.1 C29.433353,75.1 31.4,72.300028 31.4,66.7 C31.4,61.699975 30.500009,58.333342 28.7,56.6 C27.899996,55.866663 24.700028,54.333345 19.1,52 C14.633311,50.133324 11.033347,46.933356 8.3,42.4 C5.833321,38.266646 4.566667,33.966689 4.5,29.5 C4.433333,22.299964 6.233315,15.900028 9.9,10.3 C13.766686,4.29997 18.566638,1.3 24.3,1.3 C30.9667,1.3 35.833318,3.96664 38.9,9.3 C40.76128,12.4021334 41.871937,16.1970822 42.2319984,20.6849465 L42.2319984,20.6849465 Z M35.1723649,39.0289607 C35.9104989,38.6528626 36.203987,37.7495991 35.8278889,37.0114651 C35.4517909,36.2733312 34.5485274,35.9798431 33.8103934,36.3559411 C33.0722594,36.7320392 32.7787713,37.6353027 33.1548693,38.3734366 C33.5309674,39.1115706 34.4342309,39.4050587 35.1723649,39.0289607 Z M44.9734366,34.0350652 C45.7115706,33.6589671 46.0050587,32.7557036 45.6289607,32.0175696 C45.2528626,31.2794357 44.3495991,30.9859476 43.6114651,31.3620456 C42.8733312,31.7381437 42.5798431,32.6414072 42.9559411,33.3795411 C43.3320392,34.1176751 44.2353027,34.4111632 44.9734366,34.0350652 Z" id="Shape" fill="#C12B2B"></path>
            <path d="M91.9,50.3 C91.633332,55.63336 91.699998,63.29995 92.1,73.3 C92.1,73.96667 92.333331,74.899994 92.8,76.1 C93.266669,77.300006 93.5,78.166664 93.5,78.7 C93.5,80.03334 92.366678,81.166662 90.1,82.1 C89.633331,82.300001 89.033337,82.4 88.3,82.4 C86.099989,82.4 83.766679,81.800006 81.3,80.6 C78.366652,79.199993 76.9,77.533343 76.9,75.6 C76.9,74.733329 77.2166635,73.600007 77.85,72.2 C78.4833365,70.799993 79.099997,69.43334 79.7,68.1 L79.7,50.9 L66.3,53.7 C66.3,56.966683 66.333333,61.566637 66.4,67.5 C66.466667,73.433363 66.5,76.433333 66.5,76.5 C66.5,77.300004 66.7166645,78.533325 67.15,80.2 C67.5833355,81.866675 67.8,83.066663 67.8,83.8 C67.8,85.13334 67.3500045,86.2166625 66.45,87.05 C65.5499955,87.8833375 64.333341,88.3 62.8,88.3 C61.199992,88.3 59.566675,87.866671 57.9,87 C56.233325,86.133329 55.1166695,85.2500045 54.55,84.35 C53.9833305,83.4499955 53.7,82.800002 53.7,82.4 C53.7,82.266666 53.966664,81.566673 54.5,80.3 C54.5,77.433319 54.466667,72.766699 54.4,66.3 C54.333333,59.833301 54.3,55.700009 54.3,53.9 C54.233333,53.699999 53.433341,52.26668 51.9,49.6 C50.966662,48.066659 50.633332,46.63334 50.9,45.3 C51.033334,44.566663 51.43333,43.966669 52.1,43.5 L54.1,42.1 C53.899999,26.233254 53.966665,15.500028 54.3,9.9 C53.699997,8.699994 53.4,7.733337 53.4,7 C53.4,5.533326 54.433323,4.300005 56.5,3.3 C57.366671,2.899998 58.599992,2.7 60.2,2.7 C65.400026,2.7 68.566661,4.099986 69.7,6.9 C69.900001,7.433336 70,7.933331 70,8.4 C70,9.333338 69.4166725,10.7166575 68.25,12.55 C67.0833275,14.3833425 66.5,15.899994 66.5,17.1 C66.099998,27.76672 66.033332,35.699974 66.3,40.9 C72.833366,39.766661 77.166656,38.900003 79.3,38.3 C78.699997,30.166626 78.766663,20.633388 79.5,9.7 C78.899997,8.033325 78.6,6.666672 78.6,5.6 C78.6,3.59999 79.833321,1.966673 82.3,0.7 C82.833336,0.433332 83.599995,0.3 84.6,0.3 C86.933345,0.3 89.199989,0.866661 91.4,2 C93.933346,3.33334 95.233333,5.033323 95.3,7.1 C95.366667,8.033338 94.7833395,9.199993 93.55,10.6 C92.3166605,12.000007 91.7,13.233328 91.7,14.3 C91.566666,23.900048 91.633332,31.966634 91.9,38.5 C92.966672,39.366671 94.0499945,40.633325 95.15,42.3 C96.2500055,43.966675 96.8,45.333328 96.8,46.4 C96.8,47.466672 96.233339,48.266664 95.1,48.8 C93.966661,49.333336 92.900005,49.833331 91.9,50.3 Z M122.9,82.7 C122.299997,84.366675 120.566681,85.2 117.7,85.2 C116.899996,85.2 116.033338,85.133334 115.1,85 C109.633306,84.133329 106.433338,82.500012 105.5,80.1 C105.299999,79.633331 105.2,79.166669 105.2,78.7 C105.2,77.299993 105.966659,75.900007 107.5,74.5 C107.233332,64.49995 106.633338,44.100154 105.7,13.3 C105.766667,12.433329 105.533336,11.4166725 105,10.25 C104.466664,9.0833275 104.2,8.233336 104.2,7.7 C104.2,6.499994 104.966659,5.23334 106.5,3.9 C107.566672,2.966662 109.066657,2.5 111,2.5 C113.200011,2.5 115.533321,3.066661 118,4.2 C120.933348,5.600007 122.4,7.29999 122.4,9.3 C122.4,9.766669 121.700007,11.566651 120.3,14.7 L121.3,75.3 C121.3,76.100004 121.599997,77.1166605 122.2,78.35 C122.800003,79.5833395 123.1,80.566663 123.1,81.3 C123.1,81.766669 123.033334,82.233331 122.9,82.7 Z M186,72.7 C186.200001,73.433337 186.3,74.199996 186.3,75 C186.3,77.800014 185.200011,80.399988 183,82.8 C180.799989,85.200012 178.433346,86.4 175.9,86.4 C175.099996,86.4 174.333337,86.266668 173.6,86 C171.199988,85.133329 169.600004,83.200015 168.8,80.2 C167.933329,76.733316 166.866673,74.500005 165.6,73.5 L147.6,59.5 L148.8,71.5 C148.866667,72.433338 149.199997,73.7166585 149.8,75.35 C150.400003,76.9833415 150.7,78.199996 150.7,79 C150.7,80.400007 150.050007,81.699994 148.75,82.9 C147.449994,84.100006 145.866676,84.7 144,84.7 C141.933323,84.7 139.733345,83.933341 137.4,82.4 C134.866654,80.666658 133.6,78.833343 133.6,76.9 C133.6,76.166663 133.966663,75.366671 134.7,74.5 C135.433337,73.633329 135.8,72.833337 135.8,72.1 L133.2,13.1 C133.133333,12.233329 132.783336,11.200006 132.15,10 C131.516663,8.799994 131.2,7.900003 131.2,7.3 C131.2,6.033327 132.066658,4.633341 133.8,3.1 C134.200002,2.766665 135.266658,2.6 137,2.6 C142.933363,2.6 146.666659,3.966653 148.2,6.7 C148.600002,7.433337 148.8,8.13333 148.8,8.8 C148.8,9.46667 148.500003,10.3833275 147.9,11.55 C147.299997,12.7166725 147,13.699996 147,14.5 L147,38.9 L163.8,9.1 C164.46667,7.366658 165.099997,5.633342 165.7,3.9 C166.566671,2.099991 168.099989,1.2 170.3,1.2 C172.433344,1.2 174.599989,1.966659 176.8,3.5 C179.266679,5.233342 180.333335,7.09999 180,9.1 C179.733332,10.566674 179.100005,11.566664 178.1,12.1 C176.833327,12.833337 176.066668,13.433331 175.8,13.9 L155.6,49.1 L178.8,66.7 C180.200007,67.566671 181.649993,68.466662 183.15,69.4 C184.650008,70.333338 185.599998,71.433327 186,72.7 Z M210.8,82.7 C210.199997,84.366675 208.466681,85.2 205.6,85.2 C204.799996,85.2 203.933338,85.133334 203,85 C197.533306,84.133329 194.333338,82.500012 193.4,80.1 C193.199999,79.633331 193.1,79.166669 193.1,78.7 C193.1,77.299993 193.866659,75.900007 195.4,74.5 C195.133332,64.49995 194.533338,44.100154 193.6,13.3 C193.666667,12.433329 193.433336,11.4166725 192.9,10.25 C192.366664,9.0833275 192.1,8.233336 192.1,7.7 C192.1,6.499994 192.866659,5.23334 194.4,3.9 C195.466672,2.966662 196.966657,2.5 198.9,2.5 C201.100011,2.5 203.433321,3.066661 205.9,4.2 C208.833348,5.600007 210.3,7.29999 210.3,9.3 C210.3,9.766669 209.600007,11.566651 208.2,14.7 L209.2,75.3 C209.2,76.100004 209.499997,77.1166605 210.1,78.35 C210.700003,79.5833395 211,80.566663 211,81.3 C211,81.766669 210.933334,82.233331 210.8,82.7 Z M270.4,48.7 C270.533334,50.500009 269.850008,52.06666 268.35,53.4 C266.849993,54.73334 265.200009,55.4 263.4,55.4 C262.933331,55.4 262.216672,55.266668 261.25,55 C260.283329,54.733332 259.46667,54.633333 258.8,54.7 C257.666661,54.900001 255.866679,55.033333 253.4,55.1 C253.4,64.633381 253.333334,69.766663 253.2,70.5 C253.2,71.83334 253.649996,73.599989 254.55,75.8 C255.450005,78.000011 255.9,79.566662 255.9,80.5 C255.9,82.766678 254.000019,84.799991 250.2,86.6 C249.799998,86.800001 249.300003,86.9 248.7,86.9 C246.299988,86.9 243.700014,85.600013 240.9,83 C238.099986,80.399987 236.866665,77.833346 237.2,75.3 C237.266667,74.766664 237.849995,73.8500065 238.95,72.55 C240.050005,71.2499935 240.6,69.833341 240.6,68.3 C240.466666,63.233308 240.4,59.70001 240.4,57.7 C237.199984,58.566671 233.000026,59.366663 227.8,60.1 C227.199997,60.233334 226.300006,60.733329 225.1,61.6 C224.166662,62.333337 223.266671,62.633334 222.4,62.5 C220.599991,62.233332 218.800009,61.033344 217,58.9 C214.99999,56.499988 214.133332,54.100012 214.4,51.7 C214.533334,50.166659 215.233327,49.06667 216.5,48.4 C218.100008,47.533329 219.066665,46.833336 219.4,46.3 L239.8,9.7 C240.200002,8.966663 240.383333,7.766675 240.35,6.1 C240.316666,4.433325 240.599997,3.233337 241.2,2.5 C242.066671,1.433328 243.233326,0.9 244.7,0.9 C247.36668,0.9 250.249985,2.266653 253.35,5 C256.450016,7.733347 258,10.366654 258,12.9 C258,14.166673 257.200008,16.399984 255.6,19.6 C253.999992,22.800016 253.2,25.433323 253.2,27.5 L253.2,43.3 C254.933342,42.566663 257.666648,41.766671 261.4,40.9 C263.466677,40.766666 265.449991,41.4833255 267.35,43.05 C269.25001,44.6166745 270.266666,46.499989 270.4,48.7 Z M241,30.1 L232,47.5 L240.4,45.7 L241,30.1 Z M317.5,7.9 C318.500005,9.366674 319,11.333321 319,13.8 C319,19.600029 315.833365,28.533273 309.5,40.6 C302.899967,53.333397 297.500021,59.7 293.3,59.7 C292.233328,59.7 291.433336,59.100006 290.9,57.9 C290.699999,59.433341 290.6,61.366655 290.6,63.7 C290.6,67.70002 290.833331,72.299974 291.3,77.5 C291.3,77.966669 291.466665,78.733328 291.8,79.8 C292.133335,80.866672 292.3,81.666664 292.3,82.2 C292.3,83.466673 291.433342,84.533329 289.7,85.4 C288.899996,85.800002 287.83334,86 286.5,86 C284.299989,86 282.233343,85.500005 280.3,84.5 C278.099989,83.433328 276.833335,82.033342 276.5,80.3 C276.433333,79.833331 276.4,79.433335 276.4,79.1 C276.4,78.099995 276.749997,77.1833375 277.45,76.35 C278.150004,75.5166625 278.5,74.966668 278.5,74.7 L276.7,9.9 C276.7,9.699999 276.600001,9.300003 276.4,8.7 C276.199999,8.099997 276.1,7.633335 276.1,7.3 C276.1,6.099994 276.966658,5.16667 278.7,4.5 C280.03334,3.966664 281.433326,3.7 282.9,3.7 C283.366669,3.7 285.233317,3.899998 288.5,4.3 C288.900002,4.3 290.883316,3.5833405 294.45,2.15 C298.016685,0.7166595 301.166653,0 303.9,0 C309.23336,0 313.766648,2.633307 317.5,7.9 Z M302.6,11.9 C300.999992,11.9 298.950013,12.7499915 296.45,14.45 C293.949988,16.1500085 291.766676,18.099989 289.9,20.3 L290.3,43.3 C293.233348,41.099989 296.41665,36.6833665 299.85,30.05 C303.283351,23.4166335 305,18.366684 305,14.9 C305,12.89999 304.200008,11.9 302.6,11.9 Z M381.7,8.7 C381.833334,10.70001 380.90001,12.566658 378.9,14.3 C376.433321,16.433344 374.966669,18.099994 374.5,19.3 L355.5,67.1 L356.5,77.3 C356.833335,80.366682 357,81.633336 357,81.1 C357,83.366678 355.700013,84.933329 353.1,85.8 C352.033328,86.200002 350.83334,86.4 349.5,86.4 C346.566652,86.4 344.066677,85.666674 342,84.2 C339.666655,82.599992 338.699998,80.566679 339.1,78.1 C339.300001,76.966661 340.033327,75.500009 341.3,73.7 C342.500006,72.099992 343.033334,70.63334 342.9,69.3 L341.9,58.3 L327.1,14.5 C326.833332,13.633329 326.000007,12.20001 324.6,10.2 C323.533328,8.533325 323,7.200005 323,6.2 C323,5.53333 323.166665,4.900003 323.5,4.3 C324.366671,2.633325 327.066644,1.8 331.6,1.8 C334.533348,1.8 336.366663,2.033331 337.1,2.5 C339.300011,3.900007 340.499999,5.5833235 340.7,7.55 C340.900001,9.5166765 341.099999,11.433324 341.3,13.3 L350.7,42.5 L362.9,10.9 C364.166673,7.633317 364.999998,5.5833375 365.4,4.75 C365.800002,3.9166625 366.766659,3.16667 368.3,2.5 C369.433339,1.966664 370.699993,1.7 372.1,1.7 C374.500012,1.7 376.666657,2.36666 378.6,3.7 C380.533343,5.03334 381.566666,6.69999 381.7,8.7 Z" id="HIKI4PY" fill="#2A2E37"></path>
        </g>
    </g>
</svg>
